# Blender v2.77 (sub 0) OBJ File: ''
# www.blender.org
mtllib cube2.mtl
o Cube.001
v 1.000000 -1.000000 1.000000
v 1.000000 1.000000 1.000000
v -1.000000 1.000000 1.000000
v -1.000000 -1.000000 1.000000
v 1.000000 -0.999999 -1.000000
v -1.000000 -1.000000 -1.000000
v -1.000000 1.000000 -1.000000
v 0.999999 1.000001 -1.000000
vt 0.5000 0.5000
vt 0.5000 0.7500
vt 0.2500 0.7500
vt 0.2500 0.5000
vt 0.5000 0.2500
vt 0.2500 0.2500
vt 0.2500 0.0001
vt 0.5000 0.0001
vt 0.7500 0.2500
vt 0.7500 0.5000
vt 0.5000 0.9999
vt 0.2500 0.9999
vt 0.0001 0.5000
vt 0.0001 0.2500
vn 0.0000 0.0000 1.0000
vn 0.0000 0.0000 -1.0000
vn 1.0000 0.0000 -0.0000
vn -0.0000 1.0000 0.0000
vn -1.0000 0.0000 0.0000
vn 0.0000 -1.0000 -0.0000
usemtl Material.001
s 1
f 1/1/1 2/2/1 3/3/1 4/4/1
f 5/5/2 6/6/2 7/7/2 8/8/2
f 1/1/3 5/5/3 8/9/3 2/10/3
f 2/2/4 8/11/4 7/12/4 3/3/4
f 3/13/5 7/14/5 6/6/5 4/4/5
f 5/5/6 1/1/6 4/4/6 6/6/6
