# Blender v2.72 (sub 0) OBJ File: ''
# www.blender.org
mtllib ice_smooth_blue.mtl
o Icosphere
v 0.000000 -1.000000 0.000000
v 0.723607 -0.447220 0.525725
v -0.276388 -0.447220 0.850649
v -0.894426 -0.447216 0.000000
v -0.276388 -0.447220 -0.850649
v 0.723607 -0.447220 -0.525725
v 0.276388 0.447220 0.850649
v -0.723607 0.447220 0.525725
v -0.723607 0.447220 -0.525725
v 0.276388 0.447220 -0.850649
v 0.894426 0.447216 0.000000
v 0.000000 1.000000 0.000000
v -0.162456 -0.850654 0.499995
v 0.425323 -0.850654 0.309011
v 0.262869 -0.525738 0.809012
v 0.850648 -0.525736 0.000000
v 0.425323 -0.850654 -0.309011
v -0.525730 -0.850652 0.000000
v -0.688189 -0.525736 0.499997
v -0.162456 -0.850654 -0.499995
v -0.688189 -0.525736 -0.499997
v 0.262869 -0.525738 -0.809012
v 0.951058 0.000000 0.309013
v 0.951058 0.000000 -0.309013
v 0.000000 0.000000 1.000000
v 0.587786 0.000000 0.809017
v -0.951058 0.000000 0.309013
v -0.587786 0.000000 0.809017
v -0.587786 0.000000 -0.809017
v -0.951058 0.000000 -0.309013
v 0.587786 0.000000 -0.809017
v 0.000000 0.000000 -1.000000
v 0.688189 0.525736 0.499997
v -0.262869 0.525738 0.809012
v -0.850648 0.525736 0.000000
v -0.262869 0.525738 -0.809012
v 0.688189 0.525736 -0.499997
v 0.162456 0.850654 0.499995
v 0.525730 0.850652 0.000000
v -0.425323 0.850654 0.309011
v -0.425323 0.850654 -0.309011
v 0.162456 0.850654 -0.499995
vt 0.378270 0.538839
vt 0.398166 0.650099
vt 0.300009 0.615353
vt 0.392481 0.743358
vt 0.503157 0.723837
vt 0.253591 0.500100
vt 0.126150 0.028565
vt 0.253589 0.000100
vt 0.198132 0.113862
vt 0.076531 0.149452
vt 0.426727 0.850548
vt 0.249898 0.679158
vt 0.319081 0.705374
vt 0.251629 0.750000
vt 0.126151 0.528565
vt 0.198134 0.613861
vt 0.076531 0.649452
vt 0.249896 0.179158
vt 0.300007 0.115353
vt 0.319080 0.205375
vt 0.110776 0.256641
vt 0.179966 0.208322
vt 0.184177 0.294625
vt 0.323290 0.791677
vt 0.179967 0.708323
vt 0.378269 0.038838
vt 0.503157 0.076420
vt 0.398166 0.150099
vt 0.251629 0.250000
vt 0.105092 0.349901
vt 0.253359 0.820842
vt 0.305123 0.886139
vt 0.203248 0.884647
vt 0.110776 0.756643
vt 0.184176 0.794626
vt 0.105091 0.849901
vt 0.392481 0.243359
vt 0.503157 0.223838
vt 0.426727 0.350548
vt 0.253362 0.320842
vt 0.323291 0.291678
vt 0.305126 0.386138
vt 0.124989 0.461162
vt 0.203250 0.384648
vt 0.249668 0.499900
vt 0.000100 0.276162
vt 0.503157 0.576420
vt 0.000100 0.423580
vt 0.377107 0.971436
vt 0.000100 0.776163
vt 0.249667 0.999900
vt 0.124988 0.961161
vt 0.000100 0.923580
vt 0.377108 0.471435
vn 0.000000 -1.000000 0.000000
vn 0.425300 -0.850600 0.309000
vn -0.162500 -0.850600 0.500000
vn 0.723600 -0.447200 0.525700
vn 0.850600 -0.525700 0.000000
vn -0.525700 -0.850600 0.000000
vn -0.162500 -0.850600 -0.500000
vn 0.425300 -0.850600 -0.309000
vn 0.951000 0.000000 0.309000
vn -0.276400 -0.447200 0.850600
vn 0.262900 -0.525700 0.809000
vn 0.000000 0.000000 1.000000
vn -0.894400 -0.447200 0.000000
vn -0.688200 -0.525700 0.500000
vn -0.951000 0.000000 0.309000
vn -0.276400 -0.447200 -0.850600
vn -0.688200 -0.525700 -0.500000
vn -0.587800 0.000000 -0.809000
vn 0.723600 -0.447200 -0.525700
vn 0.262900 -0.525700 -0.809000
vn 0.587800 0.000000 -0.809000
vn 0.587800 0.000000 0.809000
vn -0.587800 0.000000 0.809000
vn -0.951000 0.000000 -0.309000
vn 0.000000 0.000000 -1.000000
vn 0.951000 0.000000 -0.309000
vn 0.276400 0.447200 0.850600
vn 0.688200 0.525700 0.500000
vn 0.162500 0.850600 0.500000
vn -0.723600 0.447200 0.525700
vn -0.262900 0.525700 0.809000
vn -0.425300 0.850600 0.309000
vn -0.723600 0.447200 -0.525700
vn -0.850600 0.525700 0.000000
vn -0.425300 0.850600 -0.309000
vn 0.276400 0.447200 -0.850600
vn -0.262900 0.525700 -0.809000
vn 0.162500 0.850600 -0.500000
vn 0.894400 0.447200 0.000000
vn 0.688200 0.525700 -0.500000
vn 0.525700 0.850600 0.000000
vn 0.000000 1.000000 0.000000
usemtl Material.001
s 1
f 1/1/1 14/2/2 13/3/3
f 2/4/4 14/2/2 16/5/5
f 1/1/1 13/3/3 18/6/6
f 1/7/1 18/8/6 20/9/7
f 1/7/1 20/9/7 17/10/8
f 2/4/4 16/5/5 23/11/9
f 3/12/10 15/13/11 25/14/12
f 4/15/13 19/16/14 27/17/15
f 5/18/16 21/19/17 29/20/18
f 6/21/19 22/22/20 31/23/21
f 2/4/4 23/11/9 26/24/22
f 3/12/10 25/14/12 28/25/23
f 4/26/13 27/27/15 30/28/24
f 5/18/16 29/20/18 32/29/25
f 6/21/19 31/23/21 24/30/26
f 7/31/27 33/32/28 38/33/29
f 8/34/30 34/35/31 40/36/32
f 9/37/33 35/38/34 41/39/35
f 10/40/36 36/41/37 42/42/38
f 11/43/39 37/44/40 39/45/41
f 13/3/3 15/13/11 3/12/10
f 13/3/3 14/2/2 15/13/11
f 14/2/2 2/4/4 15/13/11
f 16/46/5 17/10/8 6/21/19
f 16/5/5 14/2/2 17/47/8
f 14/2/2 1/1/1 17/47/8
f 18/6/6 19/16/14 4/15/13
f 18/6/6 13/3/3 19/16/14
f 13/3/3 3/12/10 19/16/14
f 20/9/7 21/19/17 5/18/16
f 20/9/7 18/8/6 21/19/17
f 18/8/6 4/26/13 21/19/17
f 17/10/8 22/22/20 6/21/19
f 17/10/8 20/9/7 22/22/20
f 20/9/7 5/18/16 22/22/20
f 23/48/9 24/30/26 11/43/39
f 23/48/9 16/46/5 24/30/26
f 16/46/5 6/21/19 24/30/26
f 25/14/12 26/24/22 7/31/27
f 25/14/12 15/13/11 26/24/22
f 15/13/11 2/4/4 26/24/22
f 27/17/15 28/25/23 8/34/30
f 27/17/15 19/16/14 28/25/23
f 19/16/14 3/12/10 28/25/23
f 29/20/18 30/28/24 9/37/33
f 29/20/18 21/19/17 30/28/24
f 21/19/17 4/26/13 30/28/24
f 31/23/21 32/29/25 10/40/36
f 31/23/21 22/22/20 32/29/25
f 22/22/20 5/18/16 32/29/25
f 26/24/22 33/32/28 7/31/27
f 26/24/22 23/11/9 33/32/28
f 23/11/9 11/49/39 33/32/28
f 28/25/23 34/35/31 8/34/30
f 28/25/23 25/14/12 34/35/31
f 25/14/12 7/31/27 34/35/31
f 30/28/24 35/38/34 9/37/33
f 30/28/24 27/27/15 35/38/34
f 27/17/15 8/34/30 35/50/34
f 32/29/25 36/41/37 10/40/36
f 32/29/25 29/20/18 36/41/37
f 29/20/18 9/37/33 36/41/37
f 24/30/26 37/44/40 11/43/39
f 24/30/26 31/23/21 37/44/40
f 31/23/21 10/40/36 37/44/40
f 38/33/29 39/51/41 12/52/42
f 38/33/29 33/32/28 39/51/41
f 33/32/28 11/49/39 39/51/41
f 40/36/32 38/33/29 12/52/42
f 40/36/32 34/35/31 38/33/29
f 34/35/31 7/31/27 38/33/29
f 41/53/35 40/36/32 12/52/42
f 41/53/35 35/50/34 40/36/32
f 35/50/34 8/34/30 40/36/32
f 42/42/38 41/39/35 12/54/42
f 42/42/38 36/41/37 41/39/35
f 36/41/37 9/37/33 41/39/35
f 39/45/41 42/42/38 12/54/42
f 39/45/41 37/44/40 42/42/38
f 37/44/40 10/40/36 42/42/38
