# Blender v2.72 (sub 0) OBJ File: ''
# www.blender.org
mtllib Sphear.mtl
o Sphere
v -0.382683 0.923880 0.000000
v -0.707107 0.707107 0.000000
v -0.923880 0.382683 0.000000
v -1.000000 -0.000000 0.000000
v -0.923880 -0.382684 0.000000
v -0.707107 -0.707107 0.000000
v -0.382683 -0.923880 0.000000
v -0.353553 0.923880 -0.146447
v -0.653281 0.707107 -0.270598
v -0.853553 0.382683 -0.353553
v -0.923880 -0.000000 -0.382683
v -0.853553 -0.382684 -0.353553
v -0.653281 -0.707107 -0.270598
v -0.353553 -0.923880 -0.146447
v -0.270598 0.923880 -0.270598
v -0.500000 0.707107 -0.500000
v -0.653281 0.382683 -0.653281
v -0.707107 -0.000000 -0.707107
v -0.653281 -0.382684 -0.653281
v -0.500000 -0.707107 -0.500000
v -0.270598 -0.923880 -0.270598
v -0.000000 -1.000000 0.000000
v -0.146447 0.923880 -0.353553
v -0.270598 0.707107 -0.653281
v -0.353553 0.382683 -0.853553
v -0.382683 -0.000000 -0.923879
v -0.353553 -0.382684 -0.853553
v -0.270598 -0.707107 -0.653281
v -0.146447 -0.923880 -0.353553
v -0.000000 0.923880 -0.382683
v -0.000000 0.707107 -0.707107
v -0.000000 0.382683 -0.923879
v -0.000000 -0.000000 -1.000000
v -0.000000 -0.382684 -0.923879
v -0.000000 -0.707107 -0.707107
v -0.000000 -0.923880 -0.382683
v 0.146446 0.923880 -0.353553
v 0.270598 0.707107 -0.653281
v 0.353553 0.382683 -0.853553
v 0.382683 -0.000000 -0.923879
v 0.353553 -0.382684 -0.853553
v 0.270598 -0.707107 -0.653281
v 0.146446 -0.923880 -0.353553
v -0.000000 1.000000 0.000000
v 0.270598 0.923880 -0.270598
v 0.500000 0.707107 -0.500000
v 0.653281 0.382683 -0.653281
v 0.707107 -0.000000 -0.707106
v 0.653281 -0.382684 -0.653281
v 0.500000 -0.707107 -0.500000
v 0.270598 -0.923880 -0.270598
v 0.353553 0.923880 -0.146446
v 0.653281 0.707107 -0.270598
v 0.853553 0.382683 -0.353553
v 0.923879 -0.000000 -0.382683
v 0.853553 -0.382684 -0.353553
v 0.653281 -0.707107 -0.270598
v 0.353553 -0.923880 -0.146446
v 0.382683 0.923880 0.000000
v 0.707106 0.707107 0.000000
v 0.923879 0.382683 0.000000
v 1.000000 -0.000000 0.000000
v 0.923879 -0.382684 0.000000
v 0.707106 -0.707107 0.000000
v 0.382683 -0.923880 0.000000
v 0.353553 0.923880 0.146447
v 0.653281 0.707107 0.270598
v 0.853553 0.382683 0.353554
v 0.923879 -0.000000 0.382684
v 0.853553 -0.382684 0.353554
v 0.653281 -0.707107 0.270598
v 0.353553 -0.923880 0.146447
v 0.270598 0.923880 0.270598
v 0.499999 0.707107 0.500000
v 0.653281 0.382683 0.653282
v 0.707106 -0.000000 0.707107
v 0.653281 -0.382684 0.653282
v 0.499999 -0.707107 0.500000
v 0.270598 -0.923880 0.270598
v 0.146446 0.923880 0.353553
v 0.270597 0.707107 0.653281
v 0.353553 0.382683 0.853553
v 0.382683 -0.000000 0.923879
v 0.353553 -0.382684 0.853553
v 0.270597 -0.707107 0.653281
v 0.146446 -0.923880 0.353553
v -0.000000 0.923880 0.382683
v -0.000000 0.707107 0.707106
v -0.000001 0.382683 0.923879
v -0.000001 -0.000000 1.000000
v -0.000001 -0.382684 0.923879
v -0.000000 -0.707107 0.707106
v -0.000000 -0.923880 0.382683
v -0.146447 0.923880 0.353553
v -0.270598 0.707107 0.653281
v -0.353554 0.382683 0.853553
v -0.382684 -0.000000 0.923879
v -0.353554 -0.382684 0.853553
v -0.270598 -0.707107 0.653281
v -0.146447 -0.923880 0.353553
v -0.270598 0.923880 0.270598
v -0.500000 0.707107 0.499999
v -0.653282 0.382683 0.653281
v -0.707107 -0.000000 0.707106
v -0.653282 -0.382684 0.653281
v -0.500000 -0.707107 0.499999
v -0.270598 -0.923880 0.270598
v -0.353553 0.923880 0.146446
v -0.653281 0.707107 0.270598
v -0.853553 0.382683 0.353553
v -0.923880 -0.000000 0.382683
v -0.853553 -0.382684 0.353553
v -0.653281 -0.707107 0.270598
v -0.353553 -0.923880 0.146446
vt 1.000000 0.000000
vt 1.000000 1.000000
vt 0.000000 1.000000
vt 0.000000 0.000000
vn -0.718800 -0.695200 0.000000
vn -0.664100 -0.695200 -0.275100
vn -0.372400 -0.915200 -0.154200
vn -0.927300 -0.374300 0.000000
vn -0.856700 -0.374300 -0.354800
vn -1.000000 0.000000 0.000000
vn -0.923900 0.000000 -0.382700
vn -0.927300 0.374300 0.000000
vn -0.856700 0.374300 -0.354800
vn -0.718800 0.695200 0.000000
vn -0.664100 0.695200 -0.275100
vn -0.403100 0.915200 0.000000
vn -0.372400 0.915200 -0.154200
vn -0.508300 -0.695200 -0.508300
vn -0.285000 -0.915200 -0.285000
vn -0.655700 -0.374300 -0.655700
vn -0.707100 0.000000 -0.707100
vn -0.655700 0.374300 -0.655700
vn -0.508300 0.695200 -0.508300
vn -0.285000 0.915200 -0.285000
vn -0.275100 -0.695200 -0.664100
vn -0.154200 -0.915200 -0.372400
vn -0.354800 -0.374300 -0.856700
vn -0.382700 0.000000 -0.923900
vn -0.354800 0.374300 -0.856700
vn -0.275100 0.695200 -0.664100
vn -0.154200 0.915200 -0.372400
vn 0.000000 -0.695200 -0.718800
vn 0.000000 -0.915200 -0.403100
vn 0.000000 -0.374300 -0.927300
vn 0.000000 0.000000 -1.000000
vn 0.000000 0.374300 -0.927300
vn 0.000000 0.695200 -0.718800
vn 0.000000 0.915200 -0.403100
vn 0.275100 -0.695200 -0.664100
vn 0.154200 -0.915200 -0.372400
vn 0.354800 -0.374300 -0.856700
vn 0.382700 0.000000 -0.923900
vn 0.354800 0.374300 -0.856700
vn 0.275100 0.695200 -0.664100
vn 0.154200 0.915200 -0.372400
vn 0.508300 -0.695200 -0.508300
vn 0.285000 -0.915200 -0.285000
vn 0.655700 -0.374300 -0.655700
vn 0.707100 0.000000 -0.707100
vn 0.655700 0.374300 -0.655700
vn 0.508300 0.695200 -0.508300
vn 0.285000 0.915200 -0.285000
vn 0.664100 -0.695200 -0.275100
vn 0.372400 -0.915200 -0.154200
vn 0.856700 -0.374300 -0.354800
vn 0.923900 0.000000 -0.382700
vn 0.856700 0.374300 -0.354800
vn 0.664100 0.695200 -0.275100
vn 0.372400 0.915200 -0.154200
vn 0.718800 -0.695200 0.000000
vn 0.403100 -0.915200 0.000000
vn 0.927300 -0.374300 0.000000
vn 1.000000 0.000000 0.000000
vn 0.927300 0.374300 0.000000
vn 0.718800 0.695200 0.000000
vn 0.403100 0.915200 0.000000
vn 0.664100 -0.695200 0.275100
vn 0.372400 -0.915200 0.154200
vn 0.856700 -0.374300 0.354800
vn 0.923900 0.000000 0.382700
vn 0.856700 0.374300 0.354800
vn 0.664100 0.695200 0.275100
vn 0.372400 0.915200 0.154200
vn 0.508300 -0.695200 0.508300
vn 0.285000 -0.915200 0.285000
vn 0.655700 -0.374300 0.655700
vn 0.707100 0.000000 0.707100
vn 0.655700 0.374300 0.655700
vn 0.508300 0.695200 0.508300
vn 0.285000 0.915200 0.285000
vn 0.275100 -0.695200 0.664100
vn 0.154200 -0.915200 0.372400
vn 0.354800 -0.374300 0.856700
vn 0.382700 0.000000 0.923900
vn 0.354800 0.374300 0.856700
vn 0.275100 0.695200 0.664100
vn 0.154200 0.915200 0.372400
vn 0.000000 -0.695200 0.718800
vn 0.000000 -0.915200 0.403100
vn 0.000000 -0.374300 0.927300
vn 0.000000 0.000000 1.000000
vn 0.000000 0.374300 0.927300
vn 0.000000 0.695200 0.718800
vn 0.000000 0.915200 0.403100
vn -0.275100 -0.695200 0.664100
vn -0.354800 -0.374300 0.856700
vn -0.382700 0.000000 0.923900
vn -0.354800 0.374300 0.856700
vn -0.275100 0.695200 0.664100
vn -0.154200 0.915200 0.372400
vn -0.508300 -0.695200 0.508300
vn -0.285000 -0.915200 0.285000
vn -0.655700 -0.374300 0.655700
vn -0.707100 0.000000 0.707100
vn -0.655700 0.374300 0.655700
vn -0.508300 0.695200 0.508300
vn -0.285000 0.915200 0.285000
vn -0.664100 -0.695200 0.275100
vn -0.372400 -0.915200 0.154200
vn -0.856700 -0.374300 0.354800
vn -0.923900 0.000000 0.382700
vn -0.856700 0.374300 0.354800
vn -0.664100 0.695200 0.275100
vn -0.372400 0.915200 0.154200
vn 0.000000 -1.000000 0.000000
vn -0.403100 -0.915200 0.000000
vn 0.000000 1.000000 0.000000
vn -0.154200 -0.915200 0.372400
usemtl Material.001
s 1
f 6/1/1 13/2/2 14/3/3
f 5/1/4 12/2/5 13/3/2
f 4/1/6 11/2/7 12/3/5
f 3/1/8 10/2/9 11/3/7
f 2/1/10 9/2/11 10/3/9
f 1/1/12 8/2/13 9/3/11
f 13/1/2 20/2/14 21/3/15
f 13/4/2 12/1/5 19/2/16
f 12/4/5 11/1/7 18/2/17
f 11/4/7 10/1/9 17/2/18
f 9/1/11 16/2/19 17/3/18
f 8/1/13 15/2/20 16/3/19
f 20/1/14 28/2/21 29/3/22
f 20/4/14 19/1/16 27/2/23
f 19/4/16 18/1/17 26/2/24
f 18/4/17 17/1/18 25/2/25
f 16/1/19 24/2/26 25/3/25
f 16/4/19 15/1/20 23/2/27
f 28/1/21 35/2/28 36/3/29
f 27/1/23 34/2/30 35/3/28
f 26/1/24 33/2/31 34/3/30
f 25/1/25 32/2/32 33/3/31
f 24/1/26 31/2/33 32/3/32
f 23/1/27 30/2/34 31/3/33
f 35/1/28 42/2/35 43/3/36
f 34/1/30 41/2/37 42/3/35
f 33/1/31 40/2/38 41/3/37
f 33/4/31 32/1/32 39/2/39
f 32/4/32 31/1/33 38/2/40
f 30/1/34 37/2/41 38/3/40
f 42/1/35 50/2/42 51/3/43
f 41/1/37 49/2/44 50/3/42
f 40/1/38 48/2/45 49/3/44
f 40/4/38 39/1/39 47/2/46
f 38/1/40 46/2/47 47/3/46
f 37/1/41 45/2/48 46/3/47
f 50/1/42 57/2/49 58/3/50
f 49/1/44 56/2/51 57/3/49
f 48/1/45 55/2/52 56/3/51
f 47/1/46 54/2/53 55/3/52
f 46/1/47 53/2/54 54/3/53
f 45/1/48 52/2/55 53/3/54
f 57/1/49 64/2/56 65/3/57
f 56/1/51 63/2/58 64/3/56
f 55/1/52 62/2/59 63/3/58
f 54/1/53 61/2/60 62/3/59
f 53/1/54 60/2/61 61/3/60
f 53/4/54 52/1/55 59/2/62
f 64/1/56 71/2/63 72/3/64
f 63/1/58 70/2/65 71/3/63
f 62/1/59 69/2/66 70/3/65
f 62/4/59 61/1/60 68/2/67
f 60/1/61 67/2/68 68/3/67
f 59/1/62 66/2/69 67/3/68
f 71/1/63 78/2/70 79/3/71
f 70/1/65 77/2/72 78/3/70
f 69/1/66 76/2/73 77/3/72
f 68/1/67 75/2/74 76/3/73
f 68/4/67 67/1/68 74/2/75
f 66/1/69 73/2/76 74/3/75
f 78/1/70 85/2/77 86/3/78
f 77/1/72 84/2/79 85/3/77
f 76/1/73 83/2/80 84/3/79
f 75/1/74 82/2/81 83/3/80
f 75/4/74 74/1/75 81/2/82
f 73/1/76 80/2/83 81/3/82
f 85/1/77 92/2/84 93/3/85
f 85/4/77 84/1/79 91/2/86
f 84/4/79 83/1/80 90/2/87
f 82/1/81 89/2/88 90/3/87
f 81/1/82 88/2/89 89/3/88
f 80/1/83 87/2/90 88/3/89
f 93/4/85 92/1/84 99/2/91
f 91/1/86 98/2/92 99/3/91
f 91/4/86 90/1/87 97/2/93
f 89/1/88 96/2/94 97/3/93
f 88/1/89 95/2/95 96/3/94
f 87/1/90 94/2/96 95/3/95
f 99/1/91 106/2/97 107/3/98
f 99/4/91 98/1/92 105/2/99
f 98/4/92 97/1/93 104/2/100
f 96/1/94 103/2/101 104/3/100
f 96/4/94 95/1/95 102/2/102
f 94/1/96 101/2/103 102/3/102
f 106/1/97 113/2/104 114/3/105
f 105/1/99 112/2/106 113/3/104
f 105/4/99 104/1/100 111/2/107
f 103/1/101 110/2/108 111/3/107
f 103/4/101 102/1/102 109/2/109
f 101/1/103 108/2/110 109/3/109
f 22/4/111 7/1/112 14/2/3
f 1/4/12 44/1/113 8/2/13
f 22/4/111 14/1/3 21/2/15
f 8/4/13 44/1/113 15/2/20
f 22/4/111 21/1/15 29/2/22
f 15/4/20 44/1/113 23/2/27
f 22/4/111 29/1/22 36/2/29
f 23/4/27 44/1/113 30/2/34
f 22/4/111 36/1/29 43/2/36
f 30/4/34 44/1/113 37/2/41
f 22/4/111 43/1/36 51/2/43
f 37/4/41 44/1/113 45/2/48
f 22/4/111 51/1/43 58/2/50
f 45/4/48 44/1/113 52/2/55
f 22/4/111 58/1/50 65/2/57
f 52/4/55 44/1/113 59/2/62
f 22/4/111 65/1/57 72/2/64
f 59/4/62 44/1/113 66/2/69
f 22/4/111 72/1/64 79/2/71
f 66/4/69 44/1/113 73/2/76
f 22/4/111 79/1/71 86/2/78
f 73/4/76 44/1/113 80/2/83
f 22/4/111 86/1/78 93/2/85
f 80/4/83 44/1/113 87/2/90
f 22/4/111 93/1/85 100/2/114
f 87/4/90 44/1/113 94/2/96
f 22/4/111 100/1/114 107/2/98
f 94/4/96 44/1/113 101/2/103
f 22/4/111 107/1/98 114/2/105
f 101/4/103 44/1/113 108/2/110
f 22/4/111 114/1/105 7/2/112
f 114/4/105 113/1/104 6/2/1
f 113/4/104 112/1/106 5/2/4
f 111/1/107 4/2/6 5/3/4
f 110/1/108 3/2/8 4/3/6
f 109/1/109 2/2/10 3/3/8
f 108/1/110 1/2/12 2/3/10
f 108/4/110 44/1/113 1/2/12
f 7/4/112 6/1/1 14/3/3
f 6/4/1 5/1/4 13/3/2
f 5/4/4 4/1/6 12/3/5
f 4/4/6 3/1/8 11/3/7
f 3/4/8 2/1/10 10/3/9
f 2/4/10 1/1/12 9/3/11
f 14/4/3 13/1/2 21/3/15
f 20/3/14 13/4/2 19/2/16
f 19/3/16 12/4/5 18/2/17
f 18/3/17 11/4/7 17/2/18
f 10/4/9 9/1/11 17/3/18
f 9/4/11 8/1/13 16/3/19
f 21/4/15 20/1/14 29/3/22
f 28/3/21 20/4/14 27/2/23
f 27/3/23 19/4/16 26/2/24
f 26/3/24 18/4/17 25/2/25
f 17/4/18 16/1/19 25/3/25
f 24/3/26 16/4/19 23/2/27
f 29/4/22 28/1/21 36/3/29
f 28/4/21 27/1/23 35/3/28
f 27/4/23 26/1/24 34/3/30
f 26/4/24 25/1/25 33/3/31
f 25/4/25 24/1/26 32/3/32
f 24/4/26 23/1/27 31/3/33
f 36/4/29 35/1/28 43/3/36
f 35/4/28 34/1/30 42/3/35
f 34/4/30 33/1/31 41/3/37
f 40/3/38 33/4/31 39/2/39
f 39/3/39 32/4/32 38/2/40
f 31/4/33 30/1/34 38/3/40
f 43/4/36 42/1/35 51/3/43
f 42/4/35 41/1/37 50/3/42
f 41/4/37 40/1/38 49/3/44
f 48/3/45 40/4/38 47/2/46
f 39/4/39 38/1/40 47/3/46
f 38/4/40 37/1/41 46/3/47
f 51/4/43 50/1/42 58/3/50
f 50/4/42 49/1/44 57/3/49
f 49/4/44 48/1/45 56/3/51
f 48/4/45 47/1/46 55/3/52
f 47/4/46 46/1/47 54/3/53
f 46/4/47 45/1/48 53/3/54
f 58/4/50 57/1/49 65/3/57
f 57/4/49 56/1/51 64/3/56
f 56/4/51 55/1/52 63/3/58
f 55/4/52 54/1/53 62/3/59
f 54/4/53 53/1/54 61/3/60
f 60/3/61 53/4/54 59/2/62
f 65/4/57 64/1/56 72/3/64
f 64/4/56 63/1/58 71/3/63
f 63/4/58 62/1/59 70/3/65
f 69/3/66 62/4/59 68/2/67
f 61/4/60 60/1/61 68/3/67
f 60/4/61 59/1/62 67/3/68
f 72/4/64 71/1/63 79/3/71
f 71/4/63 70/1/65 78/3/70
f 70/4/65 69/1/66 77/3/72
f 69/4/66 68/1/67 76/3/73
f 75/3/74 68/4/67 74/2/75
f 67/4/68 66/1/69 74/3/75
f 79/4/71 78/1/70 86/3/78
f 78/4/70 77/1/72 85/3/77
f 77/4/72 76/1/73 84/3/79
f 76/4/73 75/1/74 83/3/80
f 82/3/81 75/4/74 81/2/82
f 74/4/75 73/1/76 81/3/82
f 86/4/78 85/1/77 93/3/85
f 92/3/84 85/4/77 91/2/86
f 91/3/86 84/4/79 90/2/87
f 83/4/80 82/1/81 90/3/87
f 82/4/81 81/1/82 89/3/88
f 81/4/82 80/1/83 88/3/89
f 100/3/114 93/4/85 99/2/91
f 92/4/84 91/1/86 99/3/91
f 98/3/92 91/4/86 97/2/93
f 90/4/87 89/1/88 97/3/93
f 89/4/88 88/1/89 96/3/94
f 88/4/89 87/1/90 95/3/95
f 100/4/114 99/1/91 107/3/98
f 106/3/97 99/4/91 105/2/99
f 105/3/99 98/4/92 104/2/100
f 97/4/93 96/1/94 104/3/100
f 103/3/101 96/4/94 102/2/102
f 95/4/95 94/1/96 102/3/102
f 107/4/98 106/1/97 114/3/105
f 106/4/97 105/1/99 113/3/104
f 112/3/106 105/4/99 111/2/107
f 104/4/100 103/1/101 111/3/107
f 110/3/108 103/4/101 109/2/109
f 102/4/102 101/1/103 109/3/109
f 7/3/112 114/4/105 6/2/1
f 6/3/1 113/4/104 5/2/4
f 112/4/106 111/1/107 5/3/4
f 111/4/107 110/1/108 4/3/6
f 110/4/108 109/1/109 3/3/8
f 109/4/109 108/1/110 2/3/10
